<?xml version="1.0" encoding="utf-8"?>
<!-- Generator: Adobe Illustrator 27.3.1, SVG Export Plug-In . SVG Version: 6.00 Build 0)  -->
<svg version="1.1" id="Layer_1" xmlns="http://www.w3.org/2000/svg" xmlns:xlink="http://www.w3.org/1999/xlink" x="0px" y="0px"
	 viewBox="0 0 512 512" style="enable-background:new 0 0 512 512;" xml:space="preserve">
<style type="text/css">
	.st0{fill:#333333;}
	.st1{fill:#BCBEC0;}
	.st2{fill:#FFFFFF;}
</style>
<path class="st0" d="M440.4,512.2H71.7C32,512.2-0.2,480-0.2,440.3V72C-0.2,32.3,32,0.1,71.7,0.1h368.7c39.7,0,71.9,32.2,71.9,71.9
	v368.3C512.4,480,480.2,512.2,440.4,512.2z"/>
<g>
	<path class="st1" d="M177.4,100c5.1-9,20.4-27.9,31.8-27.9c18,0,31.8,11.4,31.8,15.3c-32.1,48.6-87.9,178.8-96.3,226.8
		c0,0-4.2,4.2-12.9,4.2c-15.3,0-46.2-10.5-48.6-33.6C79.9,251.2,67.6,99.1,72.4,73.9c0.6-3.3,4.5-8.1,10.5-8.1
		c13.8,0,45.6,7.8,45.6,18.3c-3.6,56.1-0.6,111.6,2.4,147.3h3.3c4.5-13.5,24-77.1,45.3-120C181.3,108.1,173.8,105.7,177.4,100z"/>
</g>
<g>
	<path class="st2" d="M145.8,356.4c-6-0.8-11.2-1.8-13.8-3c-12.4-5.6-7.6-21.4-0.6-24c2,0.2,7,4.6,19,7.6c5.6-23.4,11-43,13.4-48
		c2.4-5.8,4.4-9,12.8-9c5.4,0,18.4,2.8,21.6,7c-4,10.4-9,30.6-13.6,51.8c20.4-3.4,35.2-17.6,35.2-37.6c0-18.6-15.6-28.6-44.2-28.6
		c-22.6,0-34.2,9.8-40.2,17c0,0-1.4,1-3.4,0.6c-5.4-1-12.8-10.8-13.2-17.2c0,0,14-19,66.4-19c40.2,0,72,15,72,41.6
		c0,29.8-30,56.8-76.6,61.6l-5.6,27.2c-1.2,3.6,6.4,0.2,3.6,6c-3,6.4-5,17.6-8.4,21.6c-1.2,1.4-2.2,2.4-5,2.4
		c-6.4,0-28-7.2-29.6-8.6C138.2,391.4,141.8,373.8,145.8,356.4z"/>
	<path class="st2" d="M241.6,274.6c16.2-4.4,36-7,54-8.8c1.6-4.8,3.4-9,5.2-12.8c6-6.4,26,5.4,30.4,8.4l-0.6,2l10.2-0.6
		c11.4-0.6,20.8,0,23.2,2c1.2,1,11.4,14,11.4,17.6c0,3.2-2.4,5-6.6,5c-11.8,0.2-28,1.4-45.6,3.4c-7.4,29-12,55.6-17.6,90.4
		c1.6,0.8,4.2,0.4,4.8,2c1.8,4.4-10.6,26.4-10.6,26.4c-2.8,5.6-34-4.6-36.2-6.6c5-29.2,13.4-72.6,22.8-107.4
		c-10.4,1.8-20.6,3.6-30,5.6C248.6,302.8,236.4,276,241.6,274.6z"/>
	<path class="st2" d="M338.2,324.6c4.2-1.8,24-5.4,44.4-8c11.8-12,22.8-22,29.2-27c-17.2,0.2-52,4-65.2,9.4
		c-6.2,2.4-9.8-23.8-9.8-27.4c-0.2-10.2,100.8-18.6,111.4-18.2c5.2,0.2,9,20,9,22.6c-5,3.6-21.6,19.2-39.2,36.8
		c3.2-0.2,6.2-0.4,8.4-0.4c7.6-0.2,7.4,0.4,9.4,3c2,3,2,1,5.6,3.6c1.6,1.4,12.8,13.4,0,13c-13-0.2-29.2,0.8-44.6,2.4
		c-15.6,16.2-28.6,30.6-30.8,35c22.8-4.6,50-9.2,74.8-8.2c10.6,1.4,13,29,13,30.4c0,3.8-38.6,4.2-74.8,9.2c-13,1.6-29,4.8-40.2,8
		c-10.4,0.6-13.2-14.8-13.6-19.8c0-8,16.4-29,35.6-49.8c-4.8,0.6-9,1.4-11.8,1.8C340.2,342.4,333.8,326.8,338.2,324.6z"/>
</g>
<g>
</g>
<g>
</g>
<g>
</g>
<g>
</g>
<g>
</g>
<g>
</g>
</svg>
